<svg xmlns="http://www.w3.org/2000/svg" width="57" height="48" fill="none" xmlns:v="https://vecta.io/nano"><path fill-rule="evenodd" d="M40.76 11.531c-6.674 1.088-14.531-2.053-20.407 3.182-8.778 7.821-8.465 24.41 2.706 30.198 3.76 1.948 13.778 1.73 16.337 1.411 19.32-2.409 23.913-29.199 3.398-34.217l-2.034-.574z" fill="#ffcd7d"/><g stroke="#000" stroke-width="2" stroke-linecap="round"><path d="M11.141 23.779c.63.567 1.801.728 2.583 1.098l3.482 1.485c1.667.834 3.515 1.456 5.273 2.072.585.205.69.29 1.08-.1.286-.286.709-.566 1.061-.761 1.213-.674 2.325-1.37 3.089-2.558.283-.44.791-1.083 1.186-1.404.836-.68 1.487-1.684 2.24-2.465.911-.946 1.664-2.046 2.584-2.983l4.156-3.881c1.326-1.215 2.395-2.651 3.888-3.707 2.231-1.578 4.151-3.365 5.972-5.392.595-.662 1.092-1.342 1.822-1.847.172-.119 1.171-1.573.786-1.573l-6.284 3.139-5.76 3.239c-1.65.99-3.488 1.66-5.142 2.671l-7.051 4.568c-1.899 1.182-3.789 2.148-5.803 3.12-2.088 1.008-4.291 1.715-6.44 2.558-.659.259-1.262.64-1.909.899-.274.11-.496.435-.761.587-.665.38-.516 1.123.287 1.123"/><path d="M30.349 30.631c.845-1.926 2.226-3.687 3.651-5.217 2.183-2.344 3.819-5.157 5.604-7.8l5.46-7.875c.467-1.037 1.012-2.092 1.797-2.92l.78-1.51c.109-.2.335-.331.48-.512l1.323-1.66c.306-.426.684-.874.892-1.36.072-.169.247-.152.337-.287.074-.11.061.258.094.387a4.99 4.99 0 0 1 .137 1.236V7.58c-.016.998-.127 2.066-.25 3.058-.175 1.422-.335 2.954-.761 4.325-.705 2.266-.8 4.7-1.573 6.964-.916 2.683-1.66 5.559-1.916 8.368-.163 1.788-1.005 3.39-1.005 5.223 0 .594.123 1.329-.006 1.91-.127.57-1.334-.13-1.566-.281-1.558-1.01-3.441-1.503-5.167-2.159-1.929-.734-3.884-1.636-5.729-2.559-.477-.239-.701-.413-1.086-.736-.476-.4-.691-.598-.874-1.198-.104-.342-.18-.407-.287-.087m-7.524-1.237c.156 1.453.579 2.822.899 4.243.161.717.359 1.464.618 2.153l1.179 2.814c.221.627.253 1.293.506 1.91.19.465.563.976.624 1.466.027.218.324.961.356.867a25.02 25.02 0 0 0 .849-3.095c.144-.706.345-1.566.643-2.221.194-.428.471-.945.593-1.398.093-.343.362-.841.362-1.179 0-.779.31-1.592.337-2.39.008-.247.075-1.523.225-1.598"/><path d="M27.653 42.987c.909-1.337 2.05-2.443 3.033-3.707.682-.877 1.531-1.601 2.134-2.559.333-.528.56-1.155.949-1.654.246-.316.736-1.179 1.186-1.741M1.818 38.157c.54.54 1.048 1.148 1.685 1.573m1.91 2.583l2.808 2.134m5.279 1.685l3.707.337m4.493-.225l4.268-1.46"/></g></svg>