<svg xmlns="http://www.w3.org/2000/svg" width="46" height="50" fill="none" xmlns:v="https://vecta.io/nano"><path fill-rule="evenodd" d="M25.652 5.656c-5.195.359-11.611-4.881-14.393 2.606-4.651 12.517-12.667 24.954-5.496 33 2.414 2.708 20.001 7.952 21.974 7.926 6.032-.08 5.676-7.301 6.611-14.529 1.372-10.615 1.208-23.087-7.294-28.084l-1.402-.919z" fill="#ffcd7d"/><g stroke="#000" stroke-width="2"><path d="M31.334 8.158c5.478 4.61 8.072 5.179 5.783 7.907-3.498 4.169-4.545 5.064-18.049 21.157-1.106 1.318-2.504-.538-4.303-1.919-1.88-1.444-4.211-2.279-3.633-3.054 6.444-8.631 12.755-15.173 19.132-22.76l1.07-1.331z"/><path d="M32.225 7.259c.536-.7 1.349-1.435 1.728-1.937 0 0 .207-.531.697-.257s6.871 5.372 6.571 5.933c-.542 1.015-1.421 1.778-2.277 2.536-.197.175-.5.448-.845.23-1.51-.95-3.161-2.653-5.192-4.356-.275-.231-1.059-.772-1.175-1.438-.042-.24.493-.711.493-.711z"/><path d="M42.103 10.063c.596-.649 1.179-1.577 1.607-2.038 0 0 .902-1.749.501-2.398-.782-1.263-3.175-2.73-4.45-3.734-1.217-.958-2.709-.191-2.902-.039-.905.71-1.504 1.708-2.102 2.683-.138.225-.354.57-.08.872 1.198 1.322 3.161 2.653 5.192 4.357.275.231.944.909 1.62.908.244 0 .614-.609.614-.609z"/><g stroke-linecap="round"><path d="M10.819 32.686C8.39 44.819 8.395 43.42 17.772 37.55m13.703-23.052L17.954 31.166" stroke-linejoin="round"/><path d="M10.229 35.674c.361 1.666 2.041 1.713 2.041 1.713s.222 1.55 2.28 1.427"/></g></g></svg>